  0
SECTION
  2
HEADER
  9
$ACADVER
  1
AC1004
  9
$INSBASE
 10
0.0
 20
0.0
  9
$EXTMIN
 10
0.0
 20
0.0
  9
$EXTMAX
 10
32.767
 20
32.767
  9
$LIMMIN
 10
0.0
 20
0.0
  9
$LIMMAX
 10
32.767
 20
32.767
  9
$SNAPMODE
 70
     1
  9
$SNAPUNIT
 10
0.001
 20
0.001
  9
$SNAPBASE
 10
0.0
 20
0.0
  9
$SNAPANG
 50
0.0
  9
$SNAPSTYLE
 70
     0
  9
$SNAPISOPAIR
 70
     1
  9
$GRIDMODE
 70
     0
  9
$GRIDUNIT
 10
0.0
 20
0.0
  9
$ORTHOMODE
 70
     0
  9
$REGENMODE
 70
     1
  9
$FILLMODE
 70
     1
  9
$QTEXTMODE
 70
     0
  9
$DRAGMODE
 70
     2
  9
$LTSCALE
 40
25.0
  9
$OSMODE
 70
     0
  9
$ATTMODE
 70
     1
  9
$TEXTSIZE
 40
3.0
  9
$TRACEWID
 40
10.0
  9
$TEXTSTYLE
  7
STANDARD
  9
$CLAYER
  8
0
  9
$CELTYPE
  6
BYBLOCK
  9
$CECOLOR
 62
     0
  9
$DIMSCALE
 40
1.0
  9
$DIMASZ
 40
3.0
  9
$DIMEXO
 40
2.5
  9
$DIMDLI
 40
10.0
  9
$DIMRND
 40
0.0
  9
$DIMDLE
 40
1.25
  9
$DIMEXE
 40
2.5
  9
$DIMTP
 40
0.0
  9
$DIMTM
 40
0.0
  9
$DIMTXT
 40
3.0
  9
$DIMCEN
 40
-3.0
  9
$DIMTSZ
 40
0.0
  9
$DIMTOL
 70
     0
  9
$DIMLIM
 70
     0
  9
$DIMTIH
 70
     0
  9
$DIMTOH
 70
     0
  9
$DIMSE1
 70
     0
  9
$DIMSE2
 70
     0
  9
$DIMTAD
 70
     1
  9
$DIMZIN
 70
     1
  9
$DIMBLK
  1

  9
$DIMASO
 70
     1
  9
$DIMSHO
 70
     0
  9
$DIMPOST
  1

  9
$DIMAPOST
  1

  9
$DIMALT
 70
     0
  9
$DIMALTD
 70
     2
  9
$DIMALTF
 40
0.03937
  9
$DIMLFAC
 40
1.0
  9
$LUNITS
 70
     2
  9
$LUPREC
 70
     3
  9
$AXISMODE
 70
     0
  9
$AXISUNIT
 10
0.0
 20
0.0
  9
$SKETCHINC
 40
1.0
  9
$FILLETRAD
 40
0.0
  9
$AUNITS
 70
     0
  9
$AUPREC
 70
     4
  9
$MENU
  1
acad
  9
$ELEVATION
 40
0.0
  9
$THICKNESS
 40
0.0
  9
$VIEWDIR
 10
0.0
 20
0.0
 30
1.0
  9
$LIMCHECK
 70
     0
  9
$BLIPMODE
 70
     1
  9
$CHAMFERA
 40
0.0
  9
$CHAMFERB
 40
0.0
  9
$FASTZOOM
 70
     1
  9
$SKPOLY
 70
     1
  9
$TDCREATE
 40
2447273.4679753473
  9
$TDUPDATE
 40
2447273.4679753473
  9
$TDINDWG
 40
0.0000000000
  9
$TDUSRTIMER
 40
0.0000000000
  9
$USRTIMER
 70
     1
  9
$ANGBASE
 50
0.0
  9
$ANGDIR
 70
     0
  9
$PDMODE
 70
     0
  9
$PDSIZE
 40
0.0
  9
$PLINEWID
 40
0.0
  9
$COORDS
 70
     2
  9
$SPLFRAME
 70
     0
  9
$SPLINESEGS
 70
     8
  9
$ATTDIA
 70
     0
  9
$ATTREQ
 70
     1
  9
$USERI1
 70
     0
  9
$USERI2
 70
     1
  9
$USERI3
 70
     0
  9
$USERI4
 70
     0
  9
$USERI5
 70
     0
  9
$USERR1
 40
900.0
  9
$USERR2
 40
900.0
  9
$USERR3
 40
50.0
  9
$USERR4
 40
0.0
  9
$USERR5
 40
3600.0
  0
ENDSEC
  0
SECTION
  2
TABLES
  0
TABLE
  2
LTYPE
 70
     1
  0
LTYPE
  2
CONTINUOUS
 70
    64
  3
Solid line
 72
    65
 73
     0
 40
0.0
  0
ENDTAB
  0
TABLE
  2
LAYER
 70
     1
  0
LAYER
  2
0
 70
     0
 62
     7
  6
CONTINUOUS
  0
ENDTAB
  0
TABLE
  2
STYLE
 70
     1
  0
STYLE
  2
STANDARD
 70
     0
 40
0.0
 41
1.0
 50
0.0
 71
     0
 42
3.0
  3
simplex
  4

  0
ENDTAB
  0
TABLE
  2
VIEW
 70
     0
  0
ENDTAB
  0
ENDSEC
  0
SECTION
  2
BLOCKS
  0
BLOCK
  8
0
  2
DISC
  70
0
  10
0.0
  20
0.0
  0
POLYLINE
  8
0
  66
1
  70
1
  40
0.5
  41
0.5
  62
0
  0
VERTEX
  8
0
  10
0.0
  20
0.25
  42
1.0
  0
VERTEX
  8
0
  10
0.0
  20
-0.25
  42
1.0
  0
SEQEND
  8
0
  0
ENDBLK
  8
0
  0
BLOCK
  8
0
  2
SQUARE
  70
0
  10
0.0
  20
0.0
  0
SOLID
  8
0
  62
0
  10
-0.5
  20
-0.5
  11
 0.5
  21
-0.5
  13
 0.5
  23
 0.5
  12
-0.5
  22
 0.5
  0
ENDBLK
  8
0
  0
BLOCK
  8
0
  2
DIAMOND
  70
0
  10
0.0
  20
0.0
  0
INSERT
  8
0
  2
SQUARE
  10
0.0
  20
0.0
  50
45.0
  0
ENDBLK
  8
0
  0
BLOCK
  8
0
  2
TRIANGLE
  70
0
  10
0.0
  20
0.0
  0
SOLID
  8
0
  62
0
  10
 0.0
  20
-0.5
  11
 1.0
  21
 0.0
  13
 0.0
  23
 0.5
  12
 0.0
  22
 0.5
  0
ENDBLK
  8
0
  0
BLOCK
  8
0
  2
OCTAGON
  70
0
  10
0.0
  20
0.0
  0
SOLID
  8
0
  62
0
  10
-0.5
  20
-0.2
  11
-0.2
  21
-0.5
  13
 0.2
  23
-0.5
  12
 0.5
  22
-0.2
  0
SOLID
  8
0
  62
0
  10
-0.5
  20
 0.2
  11
 0.5
  21
 0.2
  13
 0.5
  23
-0.2
  12
-0.5
  22
-0.2
  0
SOLID
  8
0
  62
0
  10
-0.5
  20
 0.2
  11
-0.2
  21
 0.5
  13
 0.2
  23
 0.5
  12
 0.5
  22
 0.2
  0
ENDBLK
  8
0
   0  
ENDSEC
   0  
SECTION
   2  
ENTITIES
  0
INSERT
  8
0
   2  
DISC
 62
1
   10
2464.000
   20
7055.000
   41
18.000
   42
18.000
  0
POLYLINE
  8
0
   66 
1
   70 
0
 62
1
   40
18.000
   41
18.000
  0
VERTEX
  8
0
   10
2464.000
   20
7055.000
  0
VERTEX
  8
0
   10
2464.000
   20
7154.263
   0  
SEQEND
  0
INSERT
  8
0
   2  
DISC
 62
1
   10
2464.000
   20
7154.263
   41
18.000
   42
18.000
  0
INSERT
  8
0
   2  
DISC
 62
1
   10
2464.000
   20
7154.263
   41
18.000
   42
18.000
  0
POLYLINE
  8
0
   66 
1
   70 
0
 62
1
   40
18.000
   41
18.000
  0
VERTEX
  8
0
   10
2464.000
   20
7154.263
  0
VERTEX
  8
0
   10
2430.391
   20
7187.873
   0  
SEQEND
  0
INSERT
  8
0
   2  
DISC
 62
1
   10
2430.391
   20
7187.873
   41
18.000
   42
18.000
  0
POLYLINE
  8
0
   66 
1
   70 
0
 62
9
   40
8.000
   41
8.000
  0
VERTEX
  8
0
   10
2433.000
   20
7060.000
  0
VERTEX
  8
0
   10
2393.630
   20
7060.000
  0
VERTEX
  8
0
   10
2393.630
   20
7099.370
  0
VERTEX
  8
0
   10
2354.260
   20
7099.370
  0
VERTEX
  8
0
   10
2354.260
   20
7060.000
  0
VERTEX
  8
0
   10
2309.000
   20
7060.000
  0
VERTEX
  8
0
   10
2309.000
   20
7101.000
  0
VERTEX
  8
0
   10
2061.000
   20
7102.000
  0
VERTEX
  8
0
   10
2040.000
   20
7102.000
  0
VERTEX
  8
0
   10
2040.000
   20
7336.000
  0
VERTEX
  8
0
   10
3040.000
   20
7336.000
  0
VERTEX
  8
0
   10
3040.000
   20
7296.220
  0
VERTEX
  8
0
   10
2393.630
   20
7296.220
  0
VERTEX
  8
0
   10
2393.630
   20
7217.480
  0
VERTEX
  8
0
   10
2433.000
   20
7217.480
  0
VERTEX
  8
0
   10
2433.000
   20
7178.110
  0
VERTEX
  8
0
   10
2314.890
   20
7178.110
  0
VERTEX
  8
0
   10
2314.890
   20
7217.480
  0
VERTEX
  8
0
   10
2354.260
   20
7217.480
  0
VERTEX
  8
0
   10
2354.260
   20
7256.850
  0
VERTEX
  8
0
   10
2118.039
   20
7256.850
  0
VERTEX
  8
0
   10
2118.039
   20
7144.000
  0
VERTEX
  8
0
   10
2433.000
   20
7144.000
  0
VERTEX
  8
0
   10
2433.000
   20
7060.000
   0  
SEQEND
  0
POLYLINE
  8
0
   66 
1
   70 
0
 62
9
   40
8.000
   41
8.000
  0
VERTEX
  8
0
   10
2309.000
   20
7064.000
  0
VERTEX
  8
0
   10
2354.260
   20
7064.000
   0  
SEQEND
  0
POLYLINE
  8
0
   66 
1
   70 
0
 62
9
   40
8.000
   41
8.000
  0
VERTEX
  8
0
   10
2393.630
   20
7064.000
  0
VERTEX
  8
0
   10
2433.000
   20
7064.000
   0  
SEQEND
  0
POLYLINE
  8
0
   66 
1
   70 
0
 62
9
   40
8.000
   41
8.000
  0
VERTEX
  8
0
   10
2309.000
   20
7072.000
  0
VERTEX
  8
0
   10
2354.260
   20
7072.000
   0  
SEQEND
  0
POLYLINE
  8
0
   66 
1
   70 
0
 62
9
   40
8.000
   41
8.000
  0
VERTEX
  8
0
   10
2393.630
   20
7072.000
  0
VERTEX
  8
0
   10
2433.000
   20
7072.000
   0  
SEQEND
  0
POLYLINE
  8
0
   66 
1
   70 
0
 62
9
   40
8.000
   41
8.000
  0
VERTEX
  8
0
   10
2309.000
   20
7080.000
  0
VERTEX
  8
0
   10
2354.260
   20
7080.000
   0  
SEQEND
  0
POLYLINE
  8
0
   66 
1
   70 
0
 62
9
   40
8.000
   41
8.000
  0
VERTEX
  8
0
   10
2393.630
   20
7080.000
  0
VERTEX
  8
0
   10
2433.000
   20
7080.000
   0  
SEQEND
  0
POLYLINE
  8
0
   66 
1
   70 
0
 62
9
   40
8.000
   41
8.000
  0
VERTEX
  8
0
   10
2309.000
   20
7088.000
  0
VERTEX
  8
0
   10
2354.260
   20
7088.000
   0  
SEQEND
  0
POLYLINE
  8
0
   66 
1
   70 
0
 62
9
   40
8.000
   41
8.000
  0
VERTEX
  8
0
   10
2393.630
   20
7088.000
  0
VERTEX
  8
0
   10
2433.000
   20
7088.000
   0  
SEQEND
  0
POLYLINE
  8
0
   66 
1
   70 
0
 62
9
   40
8.000
   41
8.000
  0
VERTEX
  8
0
   10
2309.000
   20
7096.000
  0
VERTEX
  8
0
   10
2354.260
   20
7096.000
   0  
SEQEND
  0
POLYLINE
  8
0
   66 
1
   70 
0
 62
9
   40
8.000
   41
8.000
  0
VERTEX
  8
0
   10
2393.630
   20
7096.000
  0
VERTEX
  8
0
   10
2433.000
   20
7096.000
   0  
SEQEND
  0
POLYLINE
  8
0
   66 
1
   70 
0
 62
9
   40
8.000
   41
8.000
  0
VERTEX
  8
0
   10
2040.000
   20
7104.000
  0
VERTEX
  8
0
   10
2433.000
   20
7104.000
   0  
SEQEND
  0
POLYLINE
  8
0
   66 
1
   70 
0
 62
9
   40
8.000
   41
8.000
  0
VERTEX
  8
0
   10
2040.000
   20
7112.000
  0
VERTEX
  8
0
   10
2433.000
   20
7112.000
   0  
SEQEND
  0
POLYLINE
  8
0
   66 
1
   70 
0
 62
9
   40
8.000
   41
8.000
  0
VERTEX
  8
0
   10
2040.000
   20
7120.000
  0
VERTEX
  8
0
   10
2433.000
   20
7120.000
   0  
SEQEND
  0
POLYLINE
  8
0
   66 
1
   70 
0
 62
9
   40
8.000
   41
8.000
  0
VERTEX
  8
0
   10
2040.000
   20
7128.000
  0
VERTEX
  8
0
   10
2433.000
   20
7128.000
   0  
SEQEND
  0
POLYLINE
  8
0
   66 
1
   70 
0
 62
9
   40
8.000
   41
8.000
  0
VERTEX
  8
0
   10
2040.000
   20
7136.000
  0
VERTEX
  8
0
   10
2433.000
   20
7136.000
   0  
SEQEND
  0
POLYLINE
  8
0
   66 
1
   70 
0
 62
9
   40
8.000
   41
8.000
  0
VERTEX
  8
0
   10
2040.000
   20
7144.000
  0
VERTEX
  8
0
   10
2433.000
   20
7144.000
   0  
SEQEND
  0
POLYLINE
  8
0
   66 
1
   70 
0
 62
9
   40
8.000
   41
8.000
  0
VERTEX
  8
0
   10
2040.000
   20
7152.000
  0
VERTEX
  8
0
   10
2118.039
   20
7152.000
   0  
SEQEND
  0
POLYLINE
  8
0
   66 
1
   70 
0
 62
9
   40
8.000
   41
8.000
  0
VERTEX
  8
0
   10
2040.000
   20
7160.000
  0
VERTEX
  8
0
   10
2118.039
   20
7160.000
   0  
SEQEND
  0
POLYLINE
  8
0
   66 
1
   70 
0
 62
9
   40
8.000
   41
8.000
  0
VERTEX
  8
0
   10
2040.000
   20
7168.000
  0
VERTEX
  8
0
   10
2118.039
   20
7168.000
   0  
SEQEND
  0
POLYLINE
  8
0
   66 
1
   70 
0
 62
9
   40
8.000
   41
8.000
  0
VERTEX
  8
0
   10
2040.000
   20
7176.000
  0
VERTEX
  8
0
   10
2118.039
   20
7176.000
   0  
SEQEND
  0
POLYLINE
  8
0
   66 
1
   70 
0
 62
9
   40
8.000
   41
8.000
  0
VERTEX
  8
0
   10
2040.000
   20
7184.000
  0
VERTEX
  8
0
   10
2118.039
   20
7184.000
   0  
SEQEND
  0
POLYLINE
  8
0
   66 
1
   70 
0
 62
9
   40
8.000
   41
8.000
  0
VERTEX
  8
0
   10
2314.890
   20
7184.000
  0
VERTEX
  8
0
   10
2433.000
   20
7184.000
   0  
SEQEND
  0
POLYLINE
  8
0
   66 
1
   70 
0
 62
9
   40
8.000
   41
8.000
  0
VERTEX
  8
0
   10
2040.000
   20
7192.000
  0
VERTEX
  8
0
   10
2118.039
   20
7192.000
   0  
SEQEND
  0
POLYLINE
  8
0
   66 
1
   70 
0
 62
9
   40
8.000
   41
8.000
  0
VERTEX
  8
0
   10
2314.890
   20
7192.000
  0
VERTEX
  8
0
   10
2433.000
   20
7192.000
   0  
SEQEND
  0
POLYLINE
  8
0
   66 
1
   70 
0
 62
9
   40
8.000
   41
8.000
  0
VERTEX
  8
0
   10
2040.000
   20
7200.000
  0
VERTEX
  8
0
   10
2118.039
   20
7200.000
   0  
SEQEND
  0
POLYLINE
  8
0
   66 
1
   70 
0
 62
9
   40
8.000
   41
8.000
  0
VERTEX
  8
0
   10
2314.890
   20
7200.000
  0
VERTEX
  8
0
   10
2433.000
   20
7200.000
   0  
SEQEND
  0
POLYLINE
  8
0
   66 
1
   70 
0
 62
9
   40
8.000
   41
8.000
  0
VERTEX
  8
0
   10
2040.000
   20
7208.000
  0
VERTEX
  8
0
   10
2118.039
   20
7208.000
   0  
SEQEND
  0
POLYLINE
  8
0
   66 
1
   70 
0
 62
9
   40
8.000
   41
8.000
  0
VERTEX
  8
0
   10
2314.890
   20
7208.000
  0
VERTEX
  8
0
   10
2433.000
   20
7208.000
   0  
SEQEND
  0
POLYLINE
  8
0
   66 
1
   70 
0
 62
9
   40
8.000
   41
8.000
  0
VERTEX
  8
0
   10
2040.000
   20
7216.000
  0
VERTEX
  8
0
   10
2118.039
   20
7216.000
   0  
SEQEND
  0
POLYLINE
  8
0
   66 
1
   70 
0
 62
9
   40
8.000
   41
8.000
  0
VERTEX
  8
0
   10
2314.890
   20
7216.000
  0
VERTEX
  8
0
   10
2433.000
   20
7216.000
   0  
SEQEND
  0
POLYLINE
  8
0
   66 
1
   70 
0
 62
9
   40
8.000
   41
8.000
  0
VERTEX
  8
0
   10
2040.000
   20
7224.000
  0
VERTEX
  8
0
   10
2118.039
   20
7224.000
   0  
SEQEND
  0
POLYLINE
  8
0
   66 
1
   70 
0
 62
9
   40
8.000
   41
8.000
  0
VERTEX
  8
0
   10
2354.260
   20
7224.000
  0
VERTEX
  8
0
   10
2393.630
   20
7224.000
   0  
SEQEND
  0
POLYLINE
  8
0
   66 
1
   70 
0
 62
9
   40
8.000
   41
8.000
  0
VERTEX
  8
0
   10
2040.000
   20
7232.000
  0
VERTEX
  8
0
   10
2118.039
   20
7232.000
   0  
SEQEND
  0
POLYLINE
  8
0
   66 
1
   70 
0
 62
9
   40
8.000
   41
8.000
  0
VERTEX
  8
0
   10
2354.260
   20
7232.000
  0
VERTEX
  8
0
   10
2393.630
   20
7232.000
   0  
SEQEND
  0
POLYLINE
  8
0
   66 
1
   70 
0
 62
9
   40
8.000
   41
8.000
  0
VERTEX
  8
0
   10
2040.000
   20
7240.000
  0
VERTEX
  8
0
   10
2118.039
   20
7240.000
   0  
SEQEND
  0
POLYLINE
  8
0
   66 
1
   70 
0
 62
9
   40
8.000
   41
8.000
  0
VERTEX
  8
0
   10
2354.260
   20
7240.000
  0
VERTEX
  8
0
   10
2393.630
   20
7240.000
   0  
SEQEND
  0
POLYLINE
  8
0
   66 
1
   70 
0
 62
9
   40
8.000
   41
8.000
  0
VERTEX
  8
0
   10
2040.000
   20
7248.000
  0
VERTEX
  8
0
   10
2118.039
   20
7248.000
   0  
SEQEND
  0
POLYLINE
  8
0
   66 
1
   70 
0
 62
9
   40
8.000
   41
8.000
  0
VERTEX
  8
0
   10
2354.260
   20
7248.000
  0
VERTEX
  8
0
   10
2393.630
   20
7248.000
   0  
SEQEND
  0
POLYLINE
  8
0
   66 
1
   70 
0
 62
9
   40
8.000
   41
8.000
  0
VERTEX
  8
0
   10
2040.000
   20
7256.000
  0
VERTEX
  8
0
   10
2118.039
   20
7256.000
   0  
SEQEND
  0
POLYLINE
  8
0
   66 
1
   70 
0
 62
9
   40
8.000
   41
8.000
  0
VERTEX
  8
0
   10
2354.260
   20
7256.000
  0
VERTEX
  8
0
   10
2393.630
   20
7256.000
   0  
SEQEND
  0
POLYLINE
  8
0
   66 
1
   70 
0
 62
9
   40
8.000
   41
8.000
  0
VERTEX
  8
0
   10
2040.000
   20
7264.000
  0
VERTEX
  8
0
   10
2393.630
   20
7264.000
   0  
SEQEND
  0
POLYLINE
  8
0
   66 
1
   70 
0
 62
9
   40
8.000
   41
8.000
  0
VERTEX
  8
0
   10
2040.000
   20
7272.000
  0
VERTEX
  8
0
   10
2393.630
   20
7272.000
   0  
SEQEND
  0
POLYLINE
  8
0
   66 
1
   70 
0
 62
9
   40
8.000
   41
8.000
  0
VERTEX
  8
0
   10
2040.000
   20
7280.000
  0
VERTEX
  8
0
   10
2393.630
   20
7280.000
   0  
SEQEND
  0
POLYLINE
  8
0
   66 
1
   70 
0
 62
9
   40
8.000
   41
8.000
  0
VERTEX
  8
0
   10
2040.000
   20
7288.000
  0
VERTEX
  8
0
   10
2393.630
   20
7288.000
   0  
SEQEND
  0
POLYLINE
  8
0
   66 
1
   70 
0
 62
9
   40
8.000
   41
8.000
  0
VERTEX
  8
0
   10
2040.000
   20
7296.000
  0
VERTEX
  8
0
   10
2393.630
   20
7296.000
   0  
SEQEND
  0
POLYLINE
  8
0
   66 
1
   70 
0
 62
9
   40
8.000
   41
8.000
  0
VERTEX
  8
0
   10
2040.000
   20
7304.000
  0
VERTEX
  8
0
   10
3040.000
   20
7304.000
   0  
SEQEND
  0
POLYLINE
  8
0
   66 
1
   70 
0
 62
9
   40
8.000
   41
8.000
  0
VERTEX
  8
0
   10
2040.000
   20
7312.000
  0
VERTEX
  8
0
   10
3040.000
   20
7312.000
   0  
SEQEND
  0
POLYLINE
  8
0
   66 
1
   70 
0
 62
9
   40
8.000
   41
8.000
  0
VERTEX
  8
0
   10
2040.000
   20
7320.000
  0
VERTEX
  8
0
   10
3040.000
   20
7320.000
   0  
SEQEND
  0
POLYLINE
  8
0
   66 
1
   70 
0
 62
9
   40
8.000
   41
8.000
  0
VERTEX
  8
0
   10
2040.000
   20
7328.000
  0
VERTEX
  8
0
   10
3040.000
   20
7328.000
   0  
SEQEND
   0  
ENDSEC
   0  
EOF
